<svg xmlns="http://www.w3.org/2000/svg" fill="none" viewBox="0 0 102 24"><path fill="white" d="M92.658 24c-5.654 0-9.342-3.593-9.342-9s3.688-9 9.342-9C98.31 6 102 9.593 102 15c0 5.44-3.689 9-9.342 9Zm0-4.2c2.561 0 4.52-1.823 4.52-4.8s-2.072-4.8-4.52-4.8c-2.449 0-4.52 1.823-4.52 4.8s1.958 4.8 4.52 4.8Zm-31.643-2.073V.6h4.822v6h4.219v4.2h-4.22l-.005 6.34c0 1.242.033 2.06 1.28 2.06h3.547v4.2h-3.715c-3.397 0-5.928-2.292-5.928-5.673Zm11.452 0V.6h4.821v6h4.22v4.2h-4.22l-.006 6.34c0 1.242.034 2.06 1.281 2.06h3.547v4.2h-3.716c-3.396 0-5.927-2.292-5.927-5.673ZM45.202.6h4.813v22.8h-4.219v-1.913C44.618 23.005 42.936 24 40.372 24c-4.783.034-9.041-3.377-9.041-9 0-5.486 3.917-9 9.04-9 1.809 0 3.805.562 4.822 1.837L45.203.6Zm-4.454 19.2c2.669 0 4.445-1.799 4.445-4.8 0-3.036-2.297-4.838-4.256-4.838-2.669 0-4.784 1.802-4.784 4.838s1.927 4.8 4.595 4.8ZM57.926 7.2h-4.822v16.2h4.822V7.2ZM55.532 0c1.573 0 2.77 1.12 2.77 2.683 0 1.562-1.197 2.717-2.77 2.717-1.607 0-2.805-1.155-2.805-2.717S53.925 0 55.532 0ZM25.994 11.808 19.184.402A.515.515 0 0 0 18.74.15h-6.948a.518.518 0 0 0-.442.785l6.492 10.873a.521.521 0 0 1 0 .534L11.35 23.214a.519.519 0 0 0 .442.786h6.948a.515.515 0 0 0 .442-.252l6.811-11.406a.521.521 0 0 0 0-.534Z"></path><path fill="white" d="M14.718 11.808 7.907.402A.515.515 0 0 0 7.465.15H.516c-.4 0-.648.44-.442.785l6.492 10.873a.521.521 0 0 1 0 .534L.074 23.214A.519.519 0 0 0 .516 24h6.949a.515.515 0 0 0 .442-.252l6.81-11.406a.521.521 0 0 0 0-.534Z"></path></svg>
